@startuml
class ReportingService {
    - <<readonly>> _connectionString : string
    + ReportingService(configuration:IConfiguration, logger:ILogger<ReportingService>, pdfReportGenerator:PdfReportGenerator, excelReportGenerator:ExcelReportGenerator)
    + <<async>> GeneratePhishingReportAsync(campaignId:int) : Task<PhishingReport>
    + <<async>> GetPdfReportBytesAsync(campaignId:int) : Task<byte[]>
    + <<async>> GetExcelReportBytesAsync(campaignId:int) : Task<byte[]>
}
class "ILogger`1"<T> {
}
ReportingService --> "_logger<ReportingService>" "ILogger`1"
ReportingService --> "_pdfReportGenerator" PdfReportGenerator
ReportingService --> "_excelReportGenerator" ExcelReportGenerator
@enduml
